<svg width="247" height="87" viewBox="0 0 247 87" fill="none" xmlns="http://www.w3.org/2000/svg">
<path d="M31.4777 21.2898V23.589H27.3654V25.0844H31.4777V29.664H33.0852V25.0844H37.3004V23.589H33.0852V19H31.4777V21.2898Z" fill="#1E1E1E"/>
<path d="M18.0379 27.1219V30.4585H11.8133V32.552H18.0379V39.328H20.3464V32.552H26.6644V30.4585H20.3464V23.7853H18.0379V27.1219Z" fill="#1E1E1E"/>
<path d="M44.1231 27.1219V30.4585H37.8985V32.6548H44.1231V39.328H46.525V32.6548H52.7496V30.4585H46.525V23.7853H44.1231V27.1219Z" fill="#1E1E1E"/>
<path d="M30.8795 38.4868V42.2253H23.954V45.0104H30.8795V52.4874H33.6834V45.0104H40.6089V42.2253H33.6834V34.7483H30.8795V38.4868Z" fill="#1E1E1E"/>
<path d="M51.2449 40.3748V42.7207H47.0298V44.6179H51.2449V49.3004H53.3478V44.6179H57.563V42.7207H53.3478V38.0382H51.2449V40.3748Z" fill="#1E1E1E"/>
<path d="M11.1123 40.5804V42.8235H7V44.4123H11.1123V48.8985H12.7199V44.4123L16.935 44.2628V42.8235H12.7199V38.3373H11.1123V40.5804Z" fill="#1E1E1E"/>
<path d="M18.0379 51.1415V54.4781H11.8133V56.6745H18.0379V63.3477H20.4398V56.6745H26.6644V54.4781H20.4398V47.8049H18.0379V51.1415Z" fill="#1E1E1E"/>
<path d="M44.1231 51.1415V54.4781H37.8985V56.5717H44.1231V63.3477H46.525V56.5717H52.7496V54.4781H46.525V47.8049H44.1231V51.1415Z" fill="#1E1E1E"/>
<path d="M31.2814 59.6186V61.9552H27.0663V63.8524H31.2814V68.5349H33.3843V63.8524H37.5995V61.9552H33.3843V57.2727H31.2814V59.6186Z" fill="#1E1E1E"/>
<path d="M160.894 28.963V57.3755H157.689V28.963H160.894ZM81.2368 32.9538V42.0197H89.8634V45.0104H81.2368V54.7772H78.0311V45.0104H69.4045V42.0197H78.0311V32.9538H81.2368ZM181.568 39.1784C182.148 39.2064 182.886 39.2999 183.223 39.384C183.55 39.4681 184.092 39.6644 184.419 39.8233C184.755 39.9728 185.297 40.3 185.625 40.5523C185.961 40.8046 186.428 41.272 186.671 41.5897C186.914 41.9075 187.26 42.487 187.447 42.8702C187.634 43.2534 187.877 43.9263 187.989 44.3656C188.101 44.8048 188.232 45.6927 188.335 47.5059H177.25L177.316 47.8797C177.344 48.0853 177.465 48.5246 177.559 48.8517C177.662 49.1788 177.923 49.6929 178.129 49.9826C178.334 50.2723 178.643 50.6182 178.802 50.7397C178.97 50.8612 179.307 51.0668 179.559 51.1976C179.802 51.3191 180.232 51.478 180.512 51.5528C180.793 51.6276 181.54 51.693 182.213 51.693C182.877 51.693 183.83 51.6275 184.325 51.5434C184.821 51.4593 185.522 51.2911 185.877 51.1789C186.232 51.0668 186.699 50.8892 186.905 50.7864C187.111 50.6836 187.326 50.5901 187.382 50.5901C187.444 50.5901 187.481 51.1128 187.484 53.2818L187.484 53.5809L186.933 53.8333C186.625 53.9734 185.989 54.1978 185.503 54.3379C185.017 54.4688 184.129 54.637 183.522 54.7024C182.69 54.7866 182.129 54.7866 181.26 54.7024C180.624 54.637 179.699 54.4688 179.204 54.3286C178.708 54.1884 177.989 53.908 177.615 53.7024C177.232 53.4968 176.587 53.0201 176.176 52.6369C175.755 52.2537 175.232 51.6276 174.989 51.2444C174.746 50.8612 174.446 50.2069 174.306 49.7957C174.166 49.3845 173.998 48.6648 173.932 48.2068C173.858 47.6928 173.839 46.9731 173.876 46.4124C173.904 45.889 174.026 45.1039 174.138 44.6646C174.25 44.2254 174.521 43.5057 174.736 43.0664C174.951 42.6272 175.353 42.001 175.615 41.6738C175.886 41.3467 176.419 40.842 176.802 40.5523C177.185 40.2626 177.83 39.8981 178.232 39.7298C178.624 39.5616 179.307 39.3653 179.736 39.2812C180.25 39.1878 180.867 39.1504 181.568 39.1784ZM214.869 39.0289V44.0384C214.869 46.7956 214.841 50.0948 214.719 53.6931L213.915 53.9361C213.476 54.0669 212.588 54.2725 211.934 54.3753C211.102 54.5249 210.308 54.5809 209.233 54.5809C208.383 54.5809 207.401 54.5342 207.046 54.4781C206.691 54.4127 205.99 54.2351 205.495 54.0763C204.962 53.908 204.27 53.5809 203.84 53.3005C203.42 53.0295 202.84 52.5528 202.541 52.2257C202.251 51.9079 201.84 51.3472 201.644 50.992C201.448 50.6369 201.177 49.9826 201.046 49.5527C200.849 48.9265 200.793 48.4405 200.747 47.3096C200.719 46.403 200.747 45.5993 200.821 45.16C200.887 44.7768 201.055 44.1319 201.195 43.7207C201.326 43.3094 201.635 42.6552 201.878 42.272C202.111 41.8888 202.616 41.2813 202.999 40.9261C203.429 40.5336 203.99 40.1317 204.448 39.9074C204.859 39.7111 205.457 39.4681 205.794 39.3747C206.121 39.2906 206.934 39.1878 207.597 39.1597C208.485 39.1223 208.999 39.1597 209.551 39.2719C209.971 39.3653 210.598 39.571 210.962 39.7392C211.317 39.8981 211.626 40.0383 211.635 40.0289C211.652 40.0289 211.661 39.8404 211.663 39.6002L211.663 39.0289H214.869ZM115.65 39.0289L115.649 45.261L115.648 45.9117C115.641 48.8371 115.601 51.7079 115.5 53.6931L114.696 53.9361C114.257 54.0669 113.332 54.2725 112.64 54.394C111.584 54.5716 111.107 54.5903 109.584 54.5529C108.173 54.5155 107.602 54.4594 106.976 54.3006C106.528 54.1791 105.761 53.8893 105.266 53.6463C104.743 53.3846 104.116 52.9734 103.761 52.665C103.434 52.3659 102.967 51.8332 102.742 51.4874C102.509 51.1322 102.2 50.5714 102.07 50.2443C101.939 49.9172 101.742 49.263 101.649 48.805C101.518 48.1321 101.49 47.6367 101.527 46.4591C101.574 45.3282 101.64 44.7768 101.798 44.216C101.92 43.8048 102.2 43.1319 102.415 42.7206C102.63 42.3094 103.06 41.6832 103.378 41.3374C103.705 40.9822 104.238 40.5149 104.565 40.2906C104.892 40.0756 105.434 39.7859 105.771 39.6551C106.098 39.5242 106.696 39.3466 107.098 39.2719C107.5 39.1971 108.247 39.1317 108.752 39.1317C109.266 39.1317 109.995 39.2064 110.388 39.2812C110.771 39.3653 111.378 39.571 111.743 39.7392C112.098 39.8981 112.406 40.0383 112.416 40.0289C112.425 40.0289 112.444 39.8046 112.444 39.5336V39.0289H115.65ZM134.407 31.9538L134.408 36.7032C134.411 39.6324 134.438 39.8196 134.585 39.7766C134.688 39.7392 135.174 39.6083 135.669 39.4681C136.258 39.3093 136.968 39.2064 137.725 39.1597C138.585 39.1223 139.09 39.1504 139.725 39.2719C140.267 39.3747 140.912 39.599 141.482 39.8794C141.978 40.1224 142.632 40.5336 142.94 40.8046C143.24 41.0663 143.716 41.6178 143.987 42.029C144.268 42.4402 144.613 43.0945 144.763 43.4964C144.922 43.8889 145.118 44.6272 145.212 45.1413C145.324 45.8142 145.352 46.3937 145.314 47.3096C145.286 47.9919 145.184 48.8424 145.09 49.1975C145.006 49.5527 144.782 50.1602 144.604 50.5434C144.426 50.9266 144.071 51.5154 143.819 51.8425C143.576 52.1696 143.081 52.6556 142.725 52.9267C142.38 53.1977 141.744 53.5716 141.333 53.7585C140.922 53.9548 140.239 54.1978 139.828 54.3099C139.183 54.4875 138.772 54.5155 136.921 54.5249C135.174 54.5342 134.604 54.4968 133.912 54.3473C133.445 54.2445 132.669 54.0482 132.202 53.9174C131.734 53.7865 131.323 53.637 131.286 53.5996C131.248 53.5622 131.202 48.6835 131.183 42.7487L131.146 31.9538H134.407ZM230.626 39.4308L230.617 44.4403L230.617 44.8342C230.617 44.8981 230.617 44.9611 230.617 45.0233L230.618 45.7292C230.62 48.8396 230.64 49.4377 230.762 49.9163L230.776 49.9672C230.788 50.0094 230.8 50.0514 230.813 50.0948C230.935 50.4686 231.159 50.9079 231.346 51.1322C231.524 51.3378 231.898 51.6182 232.178 51.7491C232.449 51.8799 232.972 52.0294 233.328 52.0762C233.711 52.1322 234.253 52.1322 234.636 52.0762C234.991 52.0294 235.515 51.8799 235.786 51.7491C236.066 51.6182 236.44 51.3378 236.617 51.1322C236.804 50.9079 237.038 50.4686 237.15 50.0948C237.165 50.0462 237.179 49.9994 237.192 49.9494L237.201 49.9113C237.317 49.4186 237.341 48.5286 237.345 42.9908L237.346 42.5439C237.346 42.4678 237.346 42.3908 237.346 42.313L237.346 41.0826C237.346 40.9962 237.346 40.909 237.346 40.8209L237.346 39.4308H240.627L240.608 44.8422C240.6 49.3574 240.592 50.1318 240.462 50.6425L240.45 50.6876C240.444 50.7099 240.437 50.7319 240.431 50.7539L240.417 50.7979L240.403 50.8425C240.29 51.1696 240.057 51.6649 239.879 51.936C239.702 52.2164 239.393 52.5996 239.178 52.8052C238.973 53.0108 238.524 53.3379 238.197 53.5342C237.87 53.7304 237.234 54.0015 236.795 54.1417C236.29 54.3006 235.617 54.4221 234.991 54.4688C234.43 54.4968 233.533 54.4968 232.982 54.4594C232.356 54.4221 231.673 54.3006 231.178 54.1417C230.729 54.0015 230.103 53.7304 229.767 53.5342C229.44 53.3379 229 53.0108 228.785 52.8052C228.58 52.5996 228.262 52.2164 228.084 51.936C227.916 51.6649 227.682 51.1696 227.57 50.8425L227.563 50.8204L227.548 50.7768C227.534 50.7332 227.52 50.6898 227.508 50.644L227.496 50.5974C227.371 50.0821 227.361 49.1986 227.337 44.8422L227.299 39.4308H230.626ZM208.448 42.1318C208.093 42.1318 207.551 42.2066 207.252 42.2813C206.943 42.3655 206.476 42.5524 206.205 42.7019C205.934 42.8515 205.541 43.1599 205.326 43.3935C205.111 43.6272 204.831 44.0384 204.691 44.3188C204.551 44.5899 204.373 45.0946 204.289 45.4404C204.205 45.7768 204.139 46.4404 204.139 46.9077C204.139 47.375 204.205 48.0386 204.289 48.3751C204.373 48.7209 204.532 49.1882 204.653 49.4218C204.775 49.6555 205.083 50.0667 205.336 50.3284C205.588 50.5995 205.999 50.9172 206.242 51.0387C206.495 51.1696 206.943 51.3472 207.252 51.4313C207.597 51.5341 208.168 51.5902 208.831 51.5902C209.392 51.5902 210.186 51.5434 210.579 51.4874C210.981 51.4313 211.364 51.3472 211.42 51.3098C211.504 51.263 211.551 50.0574 211.579 47.1694L211.607 43.0851C210.598 42.5711 210.037 42.3561 209.7 42.272C209.373 42.1879 208.812 42.1225 208.448 42.1318ZM108.023 42.2813C107.724 42.3655 107.257 42.5524 106.986 42.7019C106.715 42.8515 106.322 43.1599 106.107 43.3935C105.892 43.6272 105.602 44.0384 105.472 44.3188C105.331 44.5899 105.154 45.0946 105.07 45.4404C104.986 45.7768 104.92 46.3937 104.92 46.8049C104.92 47.2161 104.967 47.8236 105.023 48.1508C105.088 48.4779 105.257 49.02 105.415 49.3471C105.602 49.7396 105.901 50.1415 106.285 50.4967C106.658 50.8425 107.098 51.1322 107.481 51.2817C107.948 51.4687 108.322 51.5247 109.285 51.5715C109.967 51.5995 110.827 51.5621 111.285 51.4967C111.724 51.4313 112.135 51.3472 112.201 51.3098C112.276 51.263 112.332 49.9639 112.378 47.1788L112.444 43.1225C111.621 42.6739 111.163 42.4683 110.883 42.3748C110.612 42.272 109.976 42.1785 109.481 42.1598C108.864 42.1318 108.406 42.1692 108.023 42.2813ZM137.473 42.1318C137.09 42.1412 136.585 42.1879 136.37 42.2346C136.146 42.2813 135.632 42.4402 135.211 42.5898L134.463 42.8515V51.1415C136.034 51.5528 136.37 51.5808 137.417 51.5528C138.445 51.5247 138.781 51.478 139.277 51.2911C139.604 51.1602 140.062 50.9172 140.277 50.7397C140.501 50.5714 140.819 50.2537 140.987 50.0387C141.155 49.8237 141.398 49.3751 141.52 49.048C141.651 48.7209 141.8 48.0947 141.856 47.6554C141.94 47.0573 141.94 46.646 141.847 46.0105C141.772 45.4404 141.613 44.9263 141.38 44.4403C141.193 44.0384 140.866 43.5431 140.66 43.3375C140.454 43.1319 140.08 42.8421 139.828 42.7019C139.585 42.5524 139.109 42.3655 138.772 42.2813C138.445 42.1879 137.856 42.1225 137.473 42.1318ZM180.456 42.272C180.157 42.3561 179.671 42.5711 179.372 42.7487C179.073 42.9262 178.652 43.272 178.428 43.515C178.213 43.7674 177.923 44.1786 177.792 44.4403C177.662 44.702 177.549 44.9544 177.549 45.0104C177.549 45.0727 178.694 45.1096 180.813 45.113L184.727 45.1132C184.624 44.3749 184.531 44.0104 184.456 43.8141C184.372 43.6272 184.129 43.272 183.914 43.0384C183.652 42.7487 183.335 42.543 182.97 42.4028C182.662 42.3 182.101 42.1879 181.718 42.1598C181.269 42.1412 180.811 42.1785 180.456 42.272Z" fill="#1E1E1E"/>
</svg>
