<svg width="247" height="87" viewBox="0 0 247 87" fill="none" xmlns="http://www.w3.org/2000/svg">
<path d="M93.0318 52.3271C90.3471 52.3271 87.6127 51.2108 85.9005 49.0227V60.843H80.5232V31.6626H85.3855L85.5711 34.8725C87.2389 32.406 90.2007 31.1031 93.0266 31.1031C98.4456 31.1031 102.437 35.6658 102.437 41.7151C102.437 47.7645 98.4509 52.3298 93.0318 52.3271ZM91.3666 35.1089C88.2166 35.1089 85.6704 37.5754 85.6704 41.7178C85.6704 45.8601 88.2166 48.3319 91.3666 48.3319C94.5166 48.3319 97.0628 45.8654 97.0628 41.723C97.0628 37.5807 94.5166 35.1089 91.3666 35.1089Z" fill="#1E1E1E"/>
<path d="M122.705 51.7728L122.519 48.563C120.851 51.0295 117.887 52.3323 115.061 52.3297C109.642 52.3297 105.65 47.7697 105.65 41.7203C105.65 35.671 109.634 31.1083 115.061 31.111C117.887 31.111 120.851 32.4243 122.519 34.8803L122.705 31.6705H127.577V51.7728H122.705ZM116.731 35.1115C113.581 35.1115 111.035 37.578 111.033 41.7203C111.03 45.8627 113.579 48.3318 116.729 48.3318C119.879 48.3318 122.428 45.8653 122.428 41.723C122.428 37.5806 119.881 35.1115 116.731 35.1115Z" fill="#1E1E1E"/>
<path d="M146.365 51.7755V40.6539C146.365 36.7454 145.024 35.4425 142.569 35.4425C140.021 35.4425 137.242 37.7672 137.242 40.5594V51.7755H131.867V31.6705H136.779L137.012 35.3952C138.355 32.8342 141.364 31.1136 144.423 31.1136C149.748 31.1136 151.742 34.8384 151.742 39.816V51.7781L146.365 51.7755Z" fill="#1E1E1E"/>
<path d="M171.435 51.7808L171.249 48.5683C169.581 51.0348 166.617 52.3377 163.793 52.3377C158.374 52.3377 154.383 47.775 154.383 41.7257C154.383 35.6763 158.367 31.1163 163.793 31.1163C166.478 31.1163 169.21 32.2353 170.925 34.4207V23.8586H176.299V51.7808H171.435ZM165.461 35.1194C162.324 35.1194 159.765 37.5859 159.765 41.7257C159.765 45.8654 162.311 48.3319 165.461 48.3319C168.611 48.3319 171.157 45.868 171.157 41.7257C171.157 37.5833 168.619 35.1194 165.461 35.1194Z" fill="#1E1E1E"/>
<path d="M196.486 51.7834L196.3 48.5735C194.632 51.04 191.668 52.3403 188.842 52.3403C183.423 52.3403 179.431 47.7803 179.431 41.7283C179.431 35.6763 183.415 31.1189 188.842 31.1189C191.668 31.1189 194.632 32.4323 196.3 34.8909L196.486 31.6784H201.348V51.7808L196.486 51.7834ZM190.512 35.122C187.376 35.122 184.816 37.5885 184.814 41.7309C184.811 45.8733 187.362 48.3319 190.51 48.3319C193.657 48.3319 196.209 45.8654 196.209 41.723C196.209 37.5807 193.662 35.122 190.512 35.122Z" fill="#1E1E1E"/>
<path d="M213.25 52.4375C210.424 52.4139 207.656 51.6254 205.238 50.1549L206.119 46.4328C207.74 47.4099 210.194 48.6681 213.159 48.6681C215.289 48.6681 216.771 48.0167 216.771 46.3408C216.771 44.8988 215.242 44.3866 212.51 43.7351C207.601 42.6634 205.842 40.0577 205.842 37.2182C205.842 34.053 208.296 31.0769 213.715 31.0769C217.004 31.0769 219.877 32.519 220.512 32.892L219.631 36.4302C217.881 35.3717 215.886 34.7938 213.843 34.7543C211.669 34.7543 210.602 35.4977 210.602 36.7086C210.602 38.0561 211.993 38.6629 214.121 39.1751C219.401 40.2915 221.532 42.758 221.532 45.4583C221.542 49.7845 218.392 52.4375 213.25 52.4375Z" fill="#1E1E1E"/>
<path d="M42.872 17.972H36.5746V31.111H42.872V17.972Z" fill="#1E1E1E"/>
<path d="M42.872 44.9618H36.5746V58.1007H42.872V44.9618Z" fill="#1E1E1E"/>
<path d="M42.872 34.946H36.5746V41.1451H42.872V34.946Z" fill="#1E1E1E"/>
<path d="M32.7579 28.7759H26.4605V72.4506H32.7579V28.7759Z" fill="#1E1E1E"/>
<path d="M52.7795 55.8022H46.4821V68.9412H52.7795V55.8022Z" fill="#1E1E1E"/>
<path d="M52.7795 28.7916H46.4821V41.9305H52.7795V28.7916Z" fill="#1E1E1E"/>
<path d="M52.7795 45.7655H46.4821V51.9646H52.7795V45.7655Z" fill="#1E1E1E"/>
<path d="M62.6844 14.5494H56.387V58.2241H62.6844V14.5494Z" fill="#1E1E1E"/>
</svg>
