<svg width="247" height="87" viewBox="0 0 247 87" fill="none" xmlns="http://www.w3.org/2000/svg">
<path d="M83.949 80H22.8571C19.6268 80 17 77.3198 17 74.0048V12.9952C17 9.68019 19.6268 7 22.8571 7H83.949C87.1793 7 89.8061 9.68019 89.8061 12.9952V73.9696C89.8061 77.3198 87.1793 80 83.949 80Z" fill="#1E1E1E"/>
<path d="M35.2104 35.4947C35.3169 35.6358 35.3879 35.7768 35.4589 35.9179C35.2459 35.7416 35.0329 35.6005 34.7844 35.53C34.7489 35.4242 34.6424 35.3184 34.5004 35.2831H34.4649C34.4294 35.2478 34.3939 35.2126 34.3584 35.142C34.6424 35.2478 34.9619 35.3536 35.2104 35.4947ZM33.0095 38.457C33.187 38.457 33.3645 38.4218 33.542 38.3512C33.5775 38.3865 33.613 38.4218 33.6485 38.457C33.4355 38.5276 33.187 38.5275 32.9385 38.4923L33.0095 38.457ZM33.755 36.2353C33.826 36.2705 33.897 36.3058 33.968 36.3058C33.968 36.3763 33.968 36.4116 33.968 36.4821C33.826 36.3058 33.613 36.3058 33.4355 36.4116L33.4 36.2705L33.6485 36.2C33.684 36.2353 33.7195 36.2353 33.755 36.2353ZM32.5836 36.4821C32.6191 36.6232 32.6191 36.7643 32.6901 36.8701C32.6191 36.7643 32.5836 36.6585 32.5836 36.4821ZM34.8554 37.5048C34.8199 37.4343 34.7844 37.3638 34.7489 37.2932C34.7844 37.2227 34.8199 37.1522 34.8199 37.1169C34.8909 37.258 34.8909 37.3638 34.8554 37.5048ZM35.9914 35.0362C35.9204 35.001 35.8849 34.9657 35.8139 34.9304C35.6009 34.6836 35.3879 34.4367 35.1039 34.2604C33.968 33.4493 32.1931 33.3435 31.3766 34.6483C31.3411 34.7189 31.3056 34.7894 31.2701 34.8599C30.7377 35.3184 30.3472 35.9884 30.2407 36.6937C30.0632 36.729 29.9567 36.9053 29.9567 37.0817C29.9212 37.8928 30.3472 38.5628 30.9862 38.986C31.6251 39.5503 32.5836 39.7971 33.5065 39.7971C34.8909 39.8324 35.8139 39.0918 36.2398 38.1044V38.0691C36.9498 37.1169 37.0563 35.7768 35.9914 35.0362ZM35.2104 23.5044C35.3169 23.6454 35.3879 23.7865 35.4589 23.9276C35.2459 23.7512 35.0329 23.6102 34.7844 23.5396C34.7489 23.4338 34.6424 23.328 34.5004 23.2928H34.4649C34.4294 23.2575 34.3939 23.2222 34.3584 23.1517C34.6424 23.2222 34.9619 23.328 35.2104 23.5044ZM33.0095 26.4667C33.187 26.4667 33.3645 26.4314 33.542 26.3609C33.5775 26.3961 33.613 26.4314 33.6485 26.4667C33.4355 26.5372 33.187 26.5372 32.9385 26.5019L33.0095 26.4667ZM33.755 24.2449C33.826 24.2802 33.897 24.3155 33.968 24.3155C33.968 24.386 33.968 24.4213 33.968 24.4918C33.826 24.3155 33.613 24.3155 33.4355 24.4213L33.4 24.2802L33.6485 24.2097C33.684 24.2097 33.7195 24.2097 33.755 24.2449ZM32.5836 24.4565C32.5836 24.4918 32.5836 24.5623 32.6191 24.5976C32.6546 24.6681 32.6546 24.7387 32.6901 24.8445C32.6191 24.7739 32.5836 24.6329 32.5836 24.4565ZM34.8554 25.4792L34.7489 25.2676C34.7844 25.1971 34.8199 25.1266 34.8199 25.0913C34.8909 25.2324 34.8909 25.3734 34.8554 25.4792ZM35.9914 23.0459C35.9204 23.0106 35.8849 22.9754 35.8139 22.9401C35.6009 22.6932 35.3879 22.4464 35.1039 22.2701C33.968 21.459 32.1931 21.3532 31.3766 22.658C31.3411 22.7285 31.3056 22.799 31.2701 22.8696C30.7377 23.328 30.3472 23.9981 30.2407 24.7034C30.0632 24.7387 29.9567 24.915 29.9567 25.0913C29.9212 25.9024 30.3472 26.5725 30.9862 26.9957C31.6251 27.5599 32.5836 27.8068 33.5065 27.8068C34.8909 27.842 35.8139 27.1015 36.2398 26.114V26.0788C36.9498 25.0913 37.0563 23.7865 35.9914 23.0459ZM61.7628 35.4947C61.8693 35.6358 61.9403 35.7768 62.0113 35.9179C61.7983 35.7416 61.5853 35.6005 61.3368 35.53C61.3013 35.4242 61.1948 35.3184 61.0528 35.2831H61.0173C60.9819 35.2478 60.9464 35.2126 60.9109 35.142C61.2303 35.2478 61.5143 35.3536 61.7628 35.4947ZM59.5974 38.457C59.7749 38.457 59.9524 38.4218 60.1299 38.3512C60.1654 38.3865 60.2009 38.4218 60.2364 38.457C60.0234 38.5276 59.7749 38.5275 59.5264 38.4923L59.5974 38.457ZM60.3074 36.2353C60.3784 36.2705 60.4494 36.3058 60.5204 36.3058C60.5204 36.3763 60.5204 36.4116 60.5204 36.4821C60.3784 36.3058 60.1654 36.3058 59.9879 36.4116L59.9524 36.2705L60.2009 36.2C60.2719 36.2353 60.2719 36.2353 60.3074 36.2353ZM59.1715 36.4821C59.207 36.6232 59.207 36.7643 59.278 36.8701C59.1715 36.7643 59.136 36.6585 59.1715 36.4821ZM61.4078 37.5048C61.3723 37.4343 61.3368 37.3638 61.3013 37.2932C61.3368 37.2227 61.3723 37.1522 61.4078 37.1169C61.4433 37.258 61.4433 37.3638 61.4078 37.5048ZM62.5793 35.0362C62.5083 35.001 62.4728 34.9657 62.4018 34.9304C62.1888 34.6836 61.9758 34.4367 61.6918 34.2604C60.5559 33.4493 58.781 33.3435 57.9645 34.6483C57.929 34.7189 57.8935 34.7894 57.858 34.8599C57.3256 35.3184 56.9351 35.9884 56.8286 36.6937C56.6511 36.729 56.5446 36.9053 56.5446 37.0817C56.5091 37.8928 56.9351 38.5628 57.5741 38.986C58.213 39.5503 59.1715 39.7971 60.0944 39.7971C61.4788 39.8324 62.4018 39.0918 62.8277 38.1044V38.0691C63.5377 37.1169 63.6087 35.7768 62.5793 35.0362ZM61.7628 23.5044C61.8693 23.6454 61.9403 23.7865 62.0113 23.9276C61.7983 23.7512 61.5853 23.6102 61.3368 23.5396C61.3013 23.4338 61.1948 23.328 61.0528 23.2928H61.0173C60.9819 23.2575 60.9464 23.2222 60.9109 23.1517C61.2303 23.2222 61.5143 23.328 61.7628 23.5044ZM59.5974 26.4667C59.7749 26.4667 59.9524 26.4314 60.1299 26.3609C60.1654 26.3961 60.2009 26.4314 60.2364 26.4667C60.0234 26.5372 59.7749 26.5372 59.5264 26.5019L59.5974 26.4667ZM60.3074 24.2449C60.3784 24.2802 60.4494 24.3155 60.5204 24.3155C60.5204 24.386 60.5204 24.4213 60.5204 24.4918C60.3784 24.3155 60.1654 24.3155 59.9879 24.4213L59.9524 24.2802L60.2009 24.2097C60.2719 24.2097 60.2719 24.2097 60.3074 24.2449ZM59.1715 24.4565C59.207 24.5976 59.2425 24.7034 59.278 24.8445C59.1715 24.7739 59.136 24.6329 59.1715 24.4565ZM61.4078 25.4792L61.3013 25.2676C61.3368 25.1971 61.3723 25.1266 61.4078 25.0913C61.4433 25.2324 61.4433 25.3734 61.4078 25.4792ZM62.5793 23.0459C62.5083 23.0106 62.4728 22.9754 62.4018 22.9401C62.1888 22.6932 61.9758 22.4464 61.6918 22.2701C60.5559 21.459 58.781 21.3532 57.9645 22.658C57.929 22.7285 57.8935 22.799 57.858 22.8696C57.3256 23.328 56.9351 23.9981 56.8286 24.7034C56.6511 24.7387 56.5446 24.915 56.5446 25.0913C56.5091 25.9024 56.9351 26.5725 57.5741 26.9957C58.213 27.5599 59.1715 27.8068 60.0944 27.8068C61.4788 27.842 62.4018 27.1015 62.8277 26.114V26.0788C63.5377 25.0913 63.6087 23.7865 62.5793 23.0459Z" fill="white"/>
<path d="M34.039 46.3566C32.2641 46.3566 30.8087 47.8024 30.8087 49.601V62.6493C30.8087 64.4478 32.2641 65.8937 34.039 65.8937C35.8139 65.8937 37.2693 64.4478 37.2693 62.6493V49.601C37.2693 47.8377 35.8139 46.3566 34.039 46.3566ZM59.8459 46.3566C58.071 46.3566 56.6156 47.8024 56.6156 49.601V62.6493C56.6156 64.4478 58.071 65.8937 59.8459 65.8937C61.6208 65.8937 63.0762 64.4478 63.0762 62.6493V49.601C63.0762 47.8377 61.6208 46.3566 59.8459 46.3566ZM46.9602 33.3435C45.1853 33.3435 43.7299 34.7894 43.7299 36.5879V62.6846C43.7299 64.4831 45.1853 65.929 46.9602 65.929C48.7351 65.929 50.1905 64.4831 50.1905 62.6846V36.5879C50.1905 34.7894 48.7351 33.3435 46.9602 33.3435ZM72.7671 33.3435C70.9922 33.3435 69.5368 34.7894 69.5368 36.5879V62.6846C69.5368 64.4831 70.9922 65.929 72.7671 65.929C74.542 65.929 75.9974 64.4831 75.9974 62.6846V36.5879C75.9974 34.7894 74.542 33.3435 72.7671 33.3435Z" fill="white"/>
<path d="M74.7905 26.114C74.613 26.3961 74.3646 26.6077 74.1161 26.7488C74.2581 26.5019 74.4356 26.2198 74.5776 25.8671C74.613 25.7966 74.6485 25.7261 74.684 25.6555C74.7905 25.5497 74.826 25.444 74.7905 25.3029C75.0035 25.1618 75.1455 24.8797 75.181 24.5976L75.2165 24.5623C75.252 25.0913 75.11 25.6555 74.7905 26.114ZM70.5663 25.056C70.5663 24.915 70.5663 24.7739 70.5663 24.6328C70.7083 25.0913 70.8858 25.5498 71.0633 25.9729C71.1698 26.2551 71.3117 26.5725 71.4892 26.8193C71.3827 26.7488 71.3117 26.6783 71.2408 26.6077C70.8148 26.2198 70.6018 25.6203 70.5663 25.056ZM72.7672 24.4212C72.7672 24.1391 72.7672 23.8217 72.7672 23.5396C72.8027 23.5396 72.8382 23.5749 72.8737 23.6101L72.9447 23.6454C73.0156 23.8923 73.0156 24.2802 72.7672 24.4212ZM75.678 23.1517C75.678 22.9754 75.5715 22.7638 75.4295 22.658C75.1455 22.1995 74.7905 21.8116 74.3291 21.5295C73.7256 21.1415 73.0156 20.9299 72.5897 21.4589C72.4122 21.4589 72.2702 21.4237 72.0927 21.4237C71.9862 21.4237 71.9152 21.4237 71.8087 21.4589C71.3117 21.2473 70.7438 21.2473 70.4953 21.9174C70.3888 22.1642 70.3533 22.4464 70.3533 22.7285C70.2468 22.799 70.1758 22.9048 70.1048 22.9754C69.6079 23.6807 69.6788 24.9502 69.8918 25.7261C70.2113 27.0662 71.6667 28.1241 72.9447 27.7362C73.0511 27.7362 73.1576 27.6657 73.2286 27.6304C73.9031 27.7715 74.613 27.5246 75.2165 26.8193C76.104 25.7613 76.175 24.3507 75.678 23.1517ZM48.9836 26.114C48.8061 26.3961 48.5576 26.6077 48.3091 26.7488C48.4866 26.5019 48.6286 26.2198 48.7706 25.8671C48.8061 25.7966 48.8416 25.7261 48.8416 25.6555C48.9481 25.5497 48.9836 25.444 48.9481 25.3029C49.1611 25.1618 49.3031 24.8797 49.3386 24.5976L49.3741 24.5623C49.4451 25.0913 49.3031 25.6555 48.9836 26.114ZM44.7593 25.056C44.7593 24.915 44.7593 24.7739 44.7593 24.6328C44.9013 25.0913 45.0788 25.5498 45.2563 25.9729C45.3628 26.2551 45.5048 26.5725 45.6823 26.8193C45.5758 26.7488 45.5048 26.6783 45.4338 26.6077C45.0078 26.2198 44.7948 25.6203 44.7593 25.056ZM46.9602 24.4212C46.9247 24.1391 46.9602 23.8217 46.9602 23.5396C46.9957 23.5396 47.0312 23.5749 47.0667 23.6101C47.1022 23.6101 47.1022 23.6454 47.1377 23.6454C47.2087 23.8923 47.2087 24.2802 46.9602 24.4212ZM49.871 23.1517C49.871 22.9754 49.7645 22.7638 49.6226 22.658C49.3386 22.1995 48.9836 21.8116 48.5221 21.5295C47.9187 21.1415 47.2087 20.9299 46.7827 21.4589C46.6052 21.4589 46.4632 21.4237 46.2857 21.4237C46.1793 21.4237 46.1083 21.4237 46.0018 21.4589C45.4693 21.2473 44.9368 21.2473 44.6883 21.9174C44.5819 22.1642 44.5464 22.4464 44.5464 22.7285C44.4399 22.799 44.3689 22.9048 44.2979 22.9754C43.8009 23.6807 43.8719 24.9502 44.0849 25.7261C44.4044 27.0662 45.8598 28.1241 47.1377 27.7362C47.2442 27.7362 47.3507 27.6657 47.4217 27.6304C48.0961 27.7715 48.8061 27.5246 49.4096 26.8193C50.297 25.7613 50.368 24.3507 49.871 23.1517Z" fill="white"/>
<path d="M136.415 59.1227C134.782 59.1227 133.433 57.7827 133.468 56.1604V26.4667C133.468 24.8092 134.782 23.5044 136.415 23.5044C138.048 23.5044 139.361 24.8445 139.361 26.4667V56.1604C139.397 57.7827 138.048 59.1227 136.415 59.1227ZM198.501 59.1227C196.868 59.1227 195.519 57.7827 195.554 56.1604V26.4667C195.554 24.8092 196.868 23.5044 198.501 23.5044C200.133 23.5044 201.447 24.8445 201.447 26.4667V56.1604C201.482 57.7827 200.169 59.1227 198.501 59.1227ZM121.648 46.7092C121.648 50.2711 118.985 53.1981 115.72 53.1981C112.454 53.1981 109.791 50.3063 109.791 46.7092V41.8426C109.791 38.2807 112.454 35.3537 115.72 35.3537C118.985 35.3537 121.648 38.2455 121.648 41.8426V46.7092ZM115.72 29.429C113.519 29.429 111.389 30.0638 109.578 31.2628C109.117 30.1343 108.052 29.429 106.845 29.429C105.212 29.429 103.863 30.7691 103.899 32.3913V62.0851C103.899 63.7426 105.212 65.0474 106.845 65.0474C108.478 65.0474 109.827 63.7073 109.791 62.0851V57.3947C111.566 58.5232 113.625 59.0875 115.72 59.0875C122.251 59.0875 127.54 53.3744 127.54 46.3566V42.1247C127.54 35.1421 122.251 29.429 115.72 29.429ZM163.038 46.7092C163.038 50.2711 160.376 53.1981 157.11 53.1981C153.844 53.1981 151.182 50.3063 151.182 46.7092V41.8426C151.182 38.2807 153.844 35.3537 157.11 35.3537C160.376 35.3537 163.038 38.2455 163.038 41.8426V46.7092ZM157.11 29.429C150.578 29.429 145.289 35.1421 145.289 42.16V46.3918C145.289 53.4097 150.578 59.1227 157.11 59.1227C163.642 59.1227 168.931 53.4097 168.931 46.3918V42.16C168.931 35.1421 163.642 29.429 157.11 29.429ZM186.68 53.1981C183.414 53.1981 180.752 50.5179 180.752 47.2735V35.3889H186.68C188.313 35.3889 189.662 34.0488 189.626 32.4266C189.626 30.8044 188.313 29.4643 186.68 29.4643H180.787V26.502C180.787 24.8798 179.474 23.5397 177.841 23.5397C176.208 23.5397 174.859 24.8798 174.894 26.502V47.3087C174.894 53.8682 180.184 59.1933 186.715 59.1933C188.348 59.1933 189.697 57.8532 189.662 56.231C189.662 54.5382 188.313 53.1981 186.68 53.1981ZM228.212 29.6759C226.721 29.0411 224.982 29.7112 224.343 31.1923V31.2276L218.202 45.616L212.061 31.2628C211.422 29.7817 209.718 29.0764 208.192 29.6759H208.156C206.665 30.3459 205.955 32.074 206.594 33.5904L214.936 53.1628L213.942 55.4904C213.055 57.6416 210.96 59.0875 208.617 59.158C206.985 59.1933 205.671 60.5686 205.742 62.1909C205.778 63.7778 207.091 65.0827 208.688 65.0827H208.759C213.445 64.9769 217.634 62.0851 219.409 57.7827L229.739 33.5904C230.413 32.074 229.739 30.3459 228.212 29.6759Z" fill="#1E1E1E"/>
</svg>
