<svg width="247" height="87" viewBox="0 0 247 87" fill="none" xmlns="http://www.w3.org/2000/svg">
<g clip-path="url(#clip0_9_48)">
<path d="M94.9556 43.484C94.9556 36.5522 92.9774 32.9911 89.0189 32.7959C87.4446 32.7216 85.9071 32.9722 84.4119 33.5524C83.2184 33.9793 82.4151 34.4017 81.9924 34.8283V51.3771C84.5234 52.9644 86.7714 53.7018 88.7297 53.5861C92.8768 53.3123 94.9523 49.9479 94.9523 43.4836L94.9556 43.484ZM99.8347 43.7717C99.8347 47.2938 99.008 50.2179 97.3456 52.5413C95.4926 55.1726 92.9245 56.5275 89.6411 56.6018C87.1659 56.6807 84.6144 55.9058 81.9939 54.2814V69.3209L77.749 67.8079V34.4247C78.4456 33.5711 79.3418 32.8374 80.4287 32.2157C82.9549 30.7446 86.0271 29.9881 89.6388 29.9509L89.6991 30.0112C93.001 29.9695 95.5454 31.3243 97.3321 34.0718C98.9993 36.5917 99.8355 39.8229 99.8355 43.7697L99.8347 43.7717Z" fill="#1E1E1E"/>
<path d="M125.783 53.6437C125.783 58.3679 125.309 61.6372 124.362 63.4607C123.41 65.2798 121.598 66.7323 118.925 67.8135C116.756 68.6671 114.411 69.1313 111.893 69.2104L111.191 66.5376C113.75 66.1896 115.552 65.8416 116.599 65.4935C118.656 64.7975 120.068 63.7301 120.844 62.3009C121.466 61.1359 121.773 58.9135 121.773 55.6214V54.5169C118.87 55.8347 115.826 56.4893 112.648 56.4893C110.558 56.4893 108.715 55.8352 107.126 54.5169C105.343 53.0829 104.451 51.2638 104.451 49.0609V31.4076L108.696 29.9551V47.7226C108.696 49.6208 109.309 51.0824 110.535 52.1079C111.761 53.1334 113.35 53.6252 115.296 53.588C117.241 53.5463 119.326 52.7944 121.542 51.3233V30.5945H125.787V53.6418L125.783 53.6437Z" fill="#1E1E1E"/>
<path d="M142.364 56.3718C141.858 56.4135 141.393 56.4321 140.966 56.4321C138.565 56.4321 136.694 55.8612 135.358 54.7153C134.025 53.5689 133.356 51.9868 133.356 49.9682V33.2624H130.449V30.5939H133.356V23.5097L137.597 22.0015V30.5948H142.366V33.2633H137.597V49.8549C137.597 51.4465 138.024 52.5743 138.878 53.2332C139.612 53.776 140.778 54.0869 142.366 54.1659V56.3749L142.364 56.3718Z" fill="#1E1E1E"/>
<path d="M168.046 56.0242H163.801V39.6515C163.801 37.9857 163.411 36.5517 162.635 35.3544C161.739 33.9994 160.494 33.3219 158.896 33.3219C156.951 33.3219 154.517 34.3474 151.597 36.3984V56.0227H147.352V16.8884L151.597 15.552V33.3767C154.309 31.4043 157.272 30.4159 160.493 30.4159C162.741 30.4159 164.561 31.1724 165.953 32.6807C167.351 34.1889 168.047 36.068 168.047 38.3128V56.0184L168.046 56.0242Z" fill="#1E1E1E"/>
<path d="M190.63 42.8175C190.63 40.1538 190.124 37.9567 189.116 36.2142C187.917 34.0937 186.055 32.9754 183.536 32.8592C178.883 33.1283 176.561 36.4603 176.561 42.8475C176.561 45.7754 177.044 48.2225 178.019 50.184C179.264 52.6854 181.131 53.9194 183.623 53.878C188.295 53.8408 190.631 50.1564 190.631 42.8185L190.63 42.8175ZM195.279 42.8453C195.279 46.6364 194.308 49.7915 192.372 52.31C190.24 55.1312 187.297 56.5466 183.538 56.5466C179.813 56.5466 176.91 55.1312 174.814 52.31C172.914 49.79 171.967 46.635 171.967 42.8453C171.967 39.2814 172.993 36.2849 175.046 33.8425C177.215 31.2531 180.068 29.9539 183.589 29.9539C187.114 29.9539 189.983 31.2531 192.194 33.8425C194.246 36.2834 195.273 39.2795 195.273 42.8453H195.279Z" fill="#1E1E1E"/>
<path d="M219.599 56.0241H215.354V38.7231C215.354 36.825 214.783 35.3448 213.64 34.2774C212.498 33.2148 210.975 32.6997 209.075 32.7416C207.06 32.7787 205.142 33.4376 203.32 34.714V56.0237H199.075V34.1903C201.518 32.4131 203.766 31.2529 205.817 30.7101C207.754 30.2045 209.462 29.9536 210.934 29.9536C211.942 29.9536 212.89 30.0511 213.781 30.246C215.448 30.6311 216.804 31.3457 217.849 32.3946C219.015 33.5548 219.595 34.9469 219.595 36.5756V56.0237L219.599 56.0241Z" fill="#1E1E1E"/>
<path d="M35.8309 17.046C33.6468 17.0562 31.5613 17.2423 29.7274 17.5669C24.3195 18.5214 23.338 20.5186 23.338 24.2035V29.0691H36.1121V30.6907H23.338H18.5448C14.8321 30.6907 11.5788 32.9207 10.564 37.1607C9.3909 42.0216 9.33896 45.059 10.564 50.1341C11.4721 53.9133 13.641 56.6041 17.3536 56.6041H21.7461V50.772C21.7461 46.5587 25.3944 42.8404 29.7269 42.8404H42.4867C46.0388 42.8404 48.8761 39.9182 48.8761 36.3561V24.2016C48.8761 20.7424 45.9554 18.1458 42.4867 17.565C40.2921 17.2 38.0151 17.0341 35.8305 17.0441L35.8309 17.046ZM28.9222 20.959C30.242 20.959 31.3193 22.0535 31.3193 23.3989C31.3193 24.7396 30.2415 25.8241 28.9222 25.8241C27.5981 25.8241 26.5251 24.7401 26.5251 23.3989C26.5251 22.0535 27.5981 20.959 28.9222 20.959Z" fill="url(#paint0_linear_9_48)"/>
<path d="M50.468 30.6869V36.3571C50.468 40.7518 46.7392 44.4506 42.4872 44.4506H29.7274C26.2321 44.4506 23.338 47.4394 23.338 50.9349V63.0894C23.338 66.5486 26.3488 68.5834 29.7274 69.5737C33.7712 70.762 37.6511 70.9767 42.4872 69.5737C45.7033 68.6434 48.8766 66.7705 48.8766 63.0894V58.2238H36.1168V56.6022H48.8766H55.266C58.9786 56.6022 60.3642 54.0147 61.6554 50.1322C62.989 46.1335 62.9323 42.2863 61.6554 37.1588C60.7377 33.4658 58.9853 30.6888 55.266 30.6888H50.4728L50.468 30.6869ZM43.2924 61.4707C44.6165 61.4707 45.6895 62.5547 45.6895 63.8959C45.6895 65.2413 44.6165 66.3358 43.2924 66.3358C41.9726 66.3358 40.8953 65.2413 40.8953 63.8959C40.8953 62.5552 41.9731 61.4707 43.2924 61.4707Z" fill="url(#paint1_linear_9_48)"/>
<path d="M227.89 26.8115H228.634V22.1477H230.397V21.5917H226.127V22.1477H227.89V26.8115ZM231.057 26.8115H231.692V22.5519L233.072 26.811H233.78L235.218 22.5662V26.8115H235.912V21.5936H234.994L233.423 26.0655L232.083 21.5936H231.057V26.8115Z" fill="#1E1E1E"/>
</g>
<defs>
<linearGradient id="paint0_linear_9_48" x1="9.66373" y1="17.045" x2="39.1122" y2="42.15" gradientUnits="userSpaceOnUse">
<stop stop-color="#1E1E1E"/>
<stop offset="1" stop-color="#1E1E1E"/>
</linearGradient>
<linearGradient id="paint1_linear_9_48" x1="42.991" y1="63.5027" x2="32.4138" y2="48.6918" gradientUnits="userSpaceOnUse">
<stop stop-color="#1E1E1E"/>
<stop offset="1" stop-color="#1E1E1E"/>
</linearGradient>
<clipPath id="clip0_9_48">
<rect width="247" height="87" fill="white"/>
</clipPath>
</defs>
</svg>
